<?xml version="1.0" encoding="utf-8"?>
<!-- Generator: Adobe Illustrator 17.0.0, SVG Export Plug-In . SVG Version: 6.00 Build 0)  -->
<!DOCTYPE svg PUBLIC "-//W3C//DTD SVG 1.1//EN" "http://www.w3.org/Graphics/SVG/1.1/DTD/svg11.dtd">
<svg version="1.1" id="Layer_1" xmlns="http://www.w3.org/2000/svg" xmlns:xlink="http://www.w3.org/1999/xlink" x="0px" y="0px"
	 width="96.026px" height="12.99px" viewBox="0 0 96.026 12.99" enable-background="new 0 0 96.026 12.99" xml:space="preserve">
<path fill-rule="evenodd" clip-rule="evenodd" fill="#C20017" stroke="#C20017" stroke-width="0.25" stroke-miterlimit="10" d="
	M3.568,3.77c0.41,0,0.742,0.332,0.742,0.742c0,0.345-0.235,0.635-0.554,0.718v0.887l0.139,0.121v0l0.824,0.717v0.499v0.534v0.433
	v1.251l-0.656,0.578l-0.168,0.146v0l-0.139,0.121v0.887c0.319,0.083,0.554,0.373,0.554,0.718c0,0.41-0.332,0.742-0.742,0.742
	c-0.41,0-0.742-0.332-0.742-0.742c0-0.345,0.235-0.635,0.554-0.718v-0.265v-0.674v-0.12v0l0.377-0.328v0l0.586-0.51v-1.52V7.127
	l-0.586-0.51v0L3.38,6.29v0V6.17V5.496V5.231C3.061,5.147,2.826,4.858,2.826,4.513C2.826,4.103,3.158,3.77,3.568,3.77L3.568,3.77z
	 M6.33,3.77c-0.41,0-0.742,0.332-0.742,0.742c0,0.345,0.235,0.635,0.554,0.718v0.887L6.003,6.238v0L5.179,6.955v0.499v0.771v0.196
	v1.246l0.527,0.471l0.297,0.259v0l0.139,0.121v0.887c-0.319,0.083-0.554,0.373-0.554,0.718c0,0.41,0.332,0.742,0.742,0.742
	c0.41,0,0.742-0.332,0.742-0.742c0-0.345-0.235-0.635-0.554-0.718v-0.265v-0.674v-0.12v0l-0.377-0.328v0l-0.586-0.51V8.225V7.127
	l0.586-0.51v0L6.519,6.29v0V6.17V5.496V5.231c0.319-0.083,0.554-0.373,0.554-0.718C7.072,4.103,6.74,3.77,6.33,3.77L6.33,3.77z
	 M6.33,12.548c0.235,0,0.426-0.191,0.426-0.426c0-0.235-0.191-0.426-0.426-0.426c-0.235,0-0.426,0.191-0.426,0.426
	C5.905,12.357,6.095,12.548,6.33,12.548L6.33,12.548z M6.33,4.087c0.235,0,0.426,0.191,0.426,0.426c0,0.235-0.191,0.426-0.426,0.426
	c-0.235,0-0.426-0.191-0.426-0.426C5.905,4.278,6.095,4.087,6.33,4.087L6.33,4.087z M5.073,0.125c1.802,0,2.789,2.039,2.789,4.262
	c0,1.298-0.498,2.452-1.271,3.187c0.106-0.1,0.206-0.209,0.301-0.324V7.35V7.36v0.413H8.37c0.083-0.319,0.373-0.554,0.718-0.554
	c0.41,0,0.742,0.332,0.742,0.742c0,0.41-0.332,0.742-0.742,0.742c-0.345,0-0.635-0.235-0.718-0.554H6.892v0.444v0.229l0.726,0.682
	C7.896,9.329,8.268,9.355,8.52,9.59c0.3,0.28,0.316,0.749,0.036,1.049c-0.28,0.3-0.749,0.316-1.049,0.036
	C7.256,10.44,7.204,10.07,7.361,9.78l-0.3-0.282v0L6.515,8.986V8.901V8.74V8.594V8.102V7.821V7.645V7.146
	c0.63-0.666,1.03-1.655,1.03-2.76c0-2.007-0.844-3.87-2.471-3.87c-1.627,0-2.708,1.864-2.708,3.87c0,1.131,0.419,2.142,1.076,2.808
	v0.491v0.135v0.282v0.491V8.74v0.161v0.084L2.895,9.499v0l-0.3,0.282c0.157,0.29,0.105,0.66-0.147,0.895
	c-0.3,0.28-0.769,0.264-1.049-0.036c-0.28-0.3-0.263-0.769,0.036-1.049C1.687,9.355,2.06,9.329,2.338,9.505l0.726-0.682V8.594V8.15
	H1.585C1.502,8.469,1.212,8.704,0.867,8.704c-0.41,0-0.742-0.332-0.742-0.742c0-0.41,0.332-0.742,0.742-0.742
	c0.345,0,0.635,0.235,0.718,0.554h1.479V7.36V7.35V7.306C3.17,7.43,3.283,7.545,3.401,7.65c-0.82-0.731-1.354-1.92-1.354-3.264
	C2.047,2.164,3.271,0.125,5.073,0.125L5.073,0.125z M9.514,7.962c0,0.235-0.191,0.426-0.426,0.426c-0.235,0-0.426-0.191-0.426-0.426
	c0-0.235,0.191-0.426,0.426-0.426C9.324,7.536,9.514,7.726,9.514,7.962L9.514,7.962z M0.442,7.962c0,0.235,0.191,0.426,0.426,0.426
	c0.235,0,0.426-0.191,0.426-0.426c0-0.235-0.191-0.426-0.426-0.426C0.632,7.536,0.442,7.726,0.442,7.962L0.442,7.962z M8.325,10.423
	c-0.16,0.172-0.43,0.181-0.602,0.021c-0.172-0.16-0.181-0.43-0.021-0.602c0.161-0.172,0.43-0.181,0.602-0.021
	C8.476,9.982,8.486,10.251,8.325,10.423L8.325,10.423z M1.631,10.423c0.16,0.172,0.43,0.181,0.602,0.021
	c0.172-0.16,0.181-0.43,0.021-0.602c-0.16-0.172-0.43-0.181-0.602-0.021C1.479,9.982,1.47,10.251,1.631,10.423L1.631,10.423z
	 M3.568,12.548c-0.235,0-0.426-0.191-0.426-0.426c0-0.235,0.191-0.426,0.426-0.426c0.235,0,0.426,0.191,0.426,0.426
	C3.994,12.357,3.803,12.548,3.568,12.548L3.568,12.548z M3.568,4.087c-0.235,0-0.426,0.191-0.426,0.426
	c0,0.235,0.191,0.426,0.426,0.426c0.235,0,0.426-0.191,0.426-0.426C3.994,4.278,3.803,4.087,3.568,4.087L3.568,4.087z"/>
<g>
	<path fill="#FFFFFF" stroke="#FFFFFF" stroke-width="0.25" stroke-miterlimit="10" d="M16.944,5.533l4.386-3.799h2.269l-5.094,4.31
		l5.123,5.211h-2.277l-4.057-4.236l-0.35,0.296v3.94h-1.7V1.734h1.7V5.533z"/>
	<path fill="#FFFFFF" stroke="#FFFFFF" stroke-width="0.25" stroke-miterlimit="10" d="M33.446,7.198l3.488,4.058h-2.08
		l-3.218-3.897H31.33v3.897h-1.7V1.734h1.992c1.489,0,2.563,0.236,3.225,0.709c0.73,0.526,1.095,1.221,1.095,2.084
		c0,0.674-0.228,1.254-0.686,1.739C34.798,6.752,34.196,7.062,33.446,7.198z M31.33,6.106h0.54c1.611,0,2.415-0.52,2.415-1.56
		c0-0.974-0.783-1.461-2.35-1.461H31.33V6.106z"/>
	<path fill="#FFFFFF" stroke="#FFFFFF" stroke-width="0.25" stroke-miterlimit="10" d="M50.912,11.255l-3.547-6.07l-3.714,6.07
		h-1.832l5.575-9.289l5.378,9.289H50.912L50.912,11.255z"/>
	<path fill="#FFFFFF" stroke="#FFFFFF" stroke-width="0.25" stroke-miterlimit="10" d="M60.364,5.533l4.385-3.799h2.271l-5.094,4.31
		l5.123,5.211h-2.277l-4.057-4.236l-0.35,0.296v3.94h-1.701V1.734h1.701V5.533z"/>
	<path fill="#FFFFFF" stroke="#FFFFFF" stroke-width="0.25" stroke-miterlimit="10" d="M79.267,3.085h-4.516v2.288h4.385v1.35
		h-4.385v3.182h4.516v1.35h-6.217V1.734h6.217V3.085z"/>
	<path fill="#FFFFFF" stroke="#FFFFFF" stroke-width="0.25" stroke-miterlimit="10" d="M85.984,11.255V1.916l8.217,5.854V1.734
		h1.699v9.52L87.684,5.42v5.835H85.984z"/>
</g>
</svg>
