<?xml version="1.0" encoding="utf-8"?>
<!-- Generator: Adobe Illustrator 17.0.0, SVG Export Plug-In . SVG Version: 6.00 Build 0)  -->
<!DOCTYPE svg PUBLIC "-//W3C//DTD SVG 1.1//EN" "http://www.w3.org/Graphics/SVG/1.1/DTD/svg11.dtd">
<svg version="1.1" id="Layer_1" xmlns="http://www.w3.org/2000/svg" xmlns:xlink="http://www.w3.org/1999/xlink" x="0px" y="0px"
	 width="100.013px" height="17.62px" viewBox="-3.987 -4.63 100.013 17.62" enable-background="new -3.987 -4.63 100.013 17.62"
	 xml:space="preserve">
<path stroke="#000000" stroke-width="0.25" stroke-miterlimit="10" d="M1.755,0.528c0.549,0,0.994,0.445,0.994,0.994
	c0,0.462-0.315,0.851-0.742,0.962v1.189l0.186,0.162l0,0l1.104,0.961v0.669v0.716v0.58v1.677L2.418,9.212L2.193,9.408l0,0
	L2.007,9.57v1.189c0.428,0.111,0.742,0.5,0.742,0.962c0,0.549-0.445,0.994-0.994,0.994S0.76,12.27,0.76,11.721
	c0-0.462,0.315-0.851,0.742-0.962v-0.355V9.5V9.34l0,0L2.008,8.9l0,0l0.785-0.683V6.179V5.027L2.008,4.343l0,0L1.503,3.905l0,0
	V3.744V2.841V2.486C1.075,2.373,0.76,1.986,0.76,1.524C0.76,0.974,1.205,0.528,1.755,0.528L1.755,0.528z M5.456,0.528
	c-0.549,0-0.994,0.445-0.994,0.994c0,0.462,0.315,0.851,0.742,0.962v1.189L5.018,3.836l0,0L3.914,4.796v0.669v1.033v0.263v1.67
	L4.62,9.062l0.398,0.347l0,0l0.186,0.162v1.189c-0.428,0.111-0.742,0.5-0.742,0.962c0,0.549,0.445,0.994,0.994,0.994
	s0.994-0.445,0.994-0.994c0-0.462-0.315-0.851-0.742-0.962v-0.355V9.502V9.341l0,0l-0.505-0.44l0,0L4.418,8.218V6.498V5.027
	l0.785-0.683l0,0l0.507-0.438l0,0V3.744V2.841V2.486c0.428-0.111,0.742-0.5,0.742-0.962C6.451,0.974,6.006,0.528,5.456,0.528
	L5.456,0.528z M5.456,12.292c0.315,0,0.571-0.256,0.571-0.571S5.771,11.15,5.456,11.15s-0.571,0.256-0.571,0.571
	C4.887,12.036,5.141,12.292,5.456,12.292L5.456,12.292z M5.456,0.953c0.315,0,0.571,0.256,0.571,0.571S5.771,2.095,5.456,2.095
	S4.885,1.839,4.885,1.524C4.887,1.209,5.141,0.953,5.456,0.953L5.456,0.953z M3.772-4.357c2.415,0,3.738,2.733,3.738,5.712
	c0,1.739-0.667,3.286-1.703,4.271c0.142-0.134,0.276-0.28,0.403-0.434v0.134v0.013v0.553H8.19C8.301,5.465,8.69,5.15,9.152,5.15
	c0.549,0,0.994,0.445,0.994,0.994S9.702,7.139,9.152,7.139c-0.462,0-0.851-0.315-0.962-0.742H6.209v0.595v0.307l0.973,0.914
	c0.373-0.235,0.871-0.2,1.209,0.115c0.402,0.375,0.423,1.004,0.048,1.406c-0.375,0.402-1.004,0.423-1.406,0.048
	C6.697,9.467,6.627,8.971,6.838,8.582L6.436,8.204l0,0L5.704,7.518V7.404V7.189V6.993V6.334V5.957V5.721V5.052
	c0.844-0.893,1.38-2.218,1.38-3.699c0-2.69-1.131-5.186-3.311-5.186S0.144-1.335,0.144,1.354c0,1.516,0.562,2.871,1.442,3.763v0.658
	v0.181v0.378v0.658v0.197v0.216v0.113L0.853,8.206l0,0L0.451,8.584c0.21,0.389,0.141,0.884-0.197,1.199
	c-0.402,0.375-1.031,0.354-1.406-0.048c-0.375-0.402-0.352-1.031,0.048-1.406c0.338-0.316,0.838-0.351,1.21-0.115L1.079,7.3V6.993
	V6.398h-1.982c-0.111,0.428-0.5,0.742-0.962,0.742c-0.549,0-0.994-0.445-0.994-0.994s0.445-0.994,0.994-0.994
	c0.462,0,0.851,0.315,0.962,0.742h1.982V5.339V5.326V5.267c0.142,0.166,0.293,0.32,0.452,0.461c-1.099-0.98-1.815-2.573-1.815-4.374
	C-0.284-1.624,1.357-4.357,3.772-4.357L3.772-4.357z M9.723,6.146c0,0.315-0.256,0.571-0.571,0.571
	c-0.315,0-0.571-0.256-0.571-0.571c0-0.315,0.256-0.571,0.571-0.571C9.469,5.575,9.723,5.83,9.723,6.146L9.723,6.146z M-2.435,6.146
	c0,0.315,0.256,0.571,0.571,0.571s0.571-0.256,0.571-0.571c0-0.315-0.256-0.571-0.571-0.571C-2.18,5.575-2.435,5.83-2.435,6.146
	L-2.435,6.146z M8.13,9.444C7.915,9.675,7.553,9.687,7.323,9.472C7.092,9.258,7.08,8.896,7.295,8.665
	c0.216-0.231,0.576-0.243,0.807-0.028C8.332,8.853,8.345,9.214,8.13,9.444L8.13,9.444z M-0.841,9.444
	c0.214,0.231,0.576,0.243,0.807,0.028s0.243-0.576,0.028-0.807c-0.214-0.231-0.576-0.243-0.807-0.028
	C-1.045,8.853-1.057,9.214-0.841,9.444L-0.841,9.444z M1.755,12.292c-0.315,0-0.571-0.256-0.571-0.571S1.44,11.15,1.755,11.15
	c0.315,0,0.571,0.256,0.571,0.571C2.326,12.036,2.07,12.292,1.755,12.292L1.755,12.292z M1.755,0.953
	c-0.315,0-0.571,0.256-0.571,0.571S1.44,2.095,1.755,2.095c0.315,0,0.571-0.256,0.571-0.571C2.326,1.209,2.07,0.953,1.755,0.953
	L1.755,0.953z"/>
<g>
	<path stroke="#000000" stroke-width="0.25" stroke-miterlimit="10" d="M15.445,3.218l4.386-3.799H22.1l-5.094,4.31l5.123,5.211
		h-2.277l-4.057-4.236L15.445,5v3.94h-1.7v-9.521h1.7C15.445-0.581,15.445,3.218,15.445,3.218z"/>
	<path stroke="#000000" stroke-width="0.25" stroke-miterlimit="10" d="M31.947,4.883l3.488,4.058h-2.08l-3.218-3.897h-0.306v3.897
		h-1.7v-9.522h1.992c1.489,0,2.563,0.236,3.225,0.709c0.73,0.526,1.095,1.221,1.095,2.084c0,0.674-0.228,1.254-0.686,1.739
		C33.299,4.437,32.697,4.747,31.947,4.883z M29.831,3.791h0.54c1.611,0,2.415-0.52,2.415-1.56c0-0.974-0.783-1.461-2.35-1.461
		h-0.605V3.791z"/>
	<path stroke="#000000" stroke-width="0.25" stroke-miterlimit="10" d="M49.413,8.94l-3.547-6.07l-3.714,6.07H40.32l5.575-9.289
		l5.378,9.289H49.413L49.413,8.94z"/>
	<path stroke="#000000" stroke-width="0.25" stroke-miterlimit="10" d="M58.865,3.218l4.385-3.799h2.271l-5.094,4.31L65.55,8.94
		h-2.277l-4.057-4.236L58.866,5v3.94h-1.701v-9.521h1.701v3.799H58.865z"/>
	<path stroke="#000000" stroke-width="0.25" stroke-miterlimit="10" d="M77.768,0.77h-4.516v2.288h4.385v1.35h-4.385V7.59h4.516
		v1.35h-6.217v-9.521h6.217V0.77z"/>
	<path stroke="#000000" stroke-width="0.25" stroke-miterlimit="10" d="M84.485,8.94v-9.339l8.217,5.854v-6.036h1.699v9.52
		l-8.216-5.834V8.94H84.485z"/>
</g>
</svg>
