<?xml version="1.0" encoding="utf-8"?>
<!-- Generator: Adobe Illustrator 17.0.0, SVG Export Plug-In . SVG Version: 6.00 Build 0)  -->
<!DOCTYPE svg PUBLIC "-//W3C//DTD SVG 1.1//EN" "http://www.w3.org/Graphics/SVG/1.1/DTD/svg11.dtd">
<svg version="1.1" id="Layer_1" xmlns="http://www.w3.org/2000/svg" xmlns:xlink="http://www.w3.org/1999/xlink" x="0px" y="0px"
	 width="83.888px" height="17.62px" viewBox="12.138 -4.63 83.888 17.62" enable-background="new 12.138 -4.63 83.888 17.62"
	 xml:space="preserve">
<g>
	<path stroke="#000000" stroke-width="0.25" stroke-miterlimit="10" d="M15.445,3.218l4.386-3.799H22.1l-5.094,4.31l5.123,5.211
		h-2.277l-4.057-4.236L15.445,5v3.94h-1.7v-9.521h1.7C15.445-0.581,15.445,3.218,15.445,3.218z"/>
	<path stroke="#000000" stroke-width="0.25" stroke-miterlimit="10" d="M31.947,4.883l3.488,4.058h-2.08l-3.218-3.897h-0.306v3.897
		h-1.7v-9.522h1.992c1.489,0,2.563,0.236,3.225,0.709c0.73,0.526,1.095,1.221,1.095,2.084c0,0.674-0.228,1.254-0.686,1.739
		C33.299,4.437,32.697,4.747,31.947,4.883z M29.831,3.791h0.54c1.611,0,2.415-0.52,2.415-1.56c0-0.974-0.783-1.461-2.35-1.461
		h-0.605V3.791z"/>
	<path stroke="#000000" stroke-width="0.25" stroke-miterlimit="10" d="M49.413,8.94l-3.547-6.07l-3.714,6.07H40.32l5.575-9.289
		l5.378,9.289H49.413L49.413,8.94z"/>
	<path stroke="#000000" stroke-width="0.25" stroke-miterlimit="10" d="M58.865,3.218l4.385-3.799h2.271l-5.094,4.31L65.55,8.94
		h-2.277l-4.057-4.236L58.866,5v3.94h-1.701v-9.521h1.701v3.799H58.865z"/>
	<path stroke="#000000" stroke-width="0.25" stroke-miterlimit="10" d="M77.768,0.77h-4.516v2.288h4.385v1.35h-4.385V7.59h4.516
		v1.35h-6.217v-9.521h6.217V0.77z"/>
	<path stroke="#000000" stroke-width="0.25" stroke-miterlimit="10" d="M84.485,8.94v-9.339l8.217,5.854v-6.036h1.699v9.52
		l-8.216-5.834V8.94H84.485z"/>
</g>
</svg>
