<?xml version="1.0" encoding="utf-8"?>
<!-- Generator: Adobe Illustrator 17.0.0, SVG Export Plug-In . SVG Version: 6.00 Build 0)  -->
<!DOCTYPE svg PUBLIC "-//W3C//DTD SVG 1.1//EN" "http://www.w3.org/Graphics/SVG/1.1/DTD/svg11.dtd">
<svg version="1.1" id="Layer_1" xmlns="http://www.w3.org/2000/svg" xmlns:xlink="http://www.w3.org/1999/xlink" x="0px" y="0px"
	 width="80.907px" height="59.289px" viewBox="0 0 80.907 59.289" enable-background="new 0 0 80.907 59.289" xml:space="preserve">
<path stroke="#000000" stroke-width="0.25" stroke-miterlimit="10" d="M35.346,13.333c1.485,0,2.689,1.204,2.689,2.689
	c0,1.249-0.852,2.3-2.007,2.602v3.214l0.502,0.437v0.001l2.986,2.596v1.809v1.935v1.569v4.533l-2.378,2.095l-0.608,0.529l0,0
	l-0.502,0.437v3.214c1.155,0.302,2.007,1.352,2.007,2.602c0,1.485-1.204,2.689-2.689,2.689s-2.689-1.204-2.689-2.689
	c0-1.249,0.852-2.3,2.007-2.602v-0.962v-2.44v-0.434v-0.001l1.365-1.187v0.002l2.124-1.846v-5.508v-3.122l-2.124-1.846v0.001
	l-1.365-1.187V22.46v-0.433v-2.441v-0.961c-1.155-0.302-2.007-1.353-2.007-2.602C32.657,14.537,33.861,13.333,35.346,13.333
	L35.346,13.333z M45.354,13.333c-1.485,0-2.689,1.204-2.689,2.689c0,1.249,0.852,2.3,2.007,2.602v3.214l-0.502,0.437v0.001
	l-2.986,2.596v1.809v2.794v0.71v4.513l1.909,1.706l1.078,0.937l0,0l0.502,0.437v3.214c-1.155,0.302-2.007,1.352-2.007,2.602
	c0,1.485,1.204,2.689,2.689,2.689s2.689-1.204,2.689-2.689c0-1.249-0.852-2.3-2.007-2.602V40.03v-2.44v-0.434v-0.001l-1.365-1.187
	v0.002l-2.124-1.846v-4.648v-3.981l2.124-1.846v0.001l1.365-1.187V22.46v-0.433v-2.441v-0.961c1.155-0.302,2.007-1.353,2.007-2.602
	C48.043,14.537,46.839,13.333,45.354,13.333L45.354,13.333z M45.354,45.136c0.852,0,1.542-0.691,1.542-1.542
	c0-0.852-0.691-1.543-1.542-1.543c-0.852,0-1.543,0.691-1.543,1.543S44.502,45.136,45.354,45.136L45.354,45.136z M45.354,14.48
	c0.852,0,1.542,0.691,1.542,1.543s-0.691,1.543-1.542,1.543c-0.852,0-1.543-0.691-1.543-1.543S44.502,14.48,45.354,14.48
	L45.354,14.48z M40.799,0.125c6.53,0,10.104,7.388,10.104,15.441c0,4.701-1.804,8.882-4.605,11.549
	c0.382-0.364,0.746-0.756,1.089-1.174v0.36v0.039v1.496h5.359c0.302-1.155,1.353-2.007,2.602-2.007c1.485,0,2.689,1.204,2.689,2.689
	c0,1.485-1.204,2.689-2.689,2.689c-1.249,0-2.299-0.852-2.601-2.007h-5.359v1.608v0.829l2.631,2.472
	c1.009-0.638,2.358-0.544,3.271,0.308c1.086,1.013,1.144,2.715,0.131,3.801s-2.715,1.145-3.801,0.131
	c-0.913-0.852-1.1-2.192-0.533-3.242l-1.086-1.02l0,0l-1.978-1.859v-0.305V31.34v-0.53v-1.781v-1.021V27.37v-1.805
	c2.284-2.414,3.731-5.998,3.731-9.999c0-7.27-3.059-14.024-8.954-14.024s-9.813,6.753-9.813,14.024c0,4.098,1.518,7.759,3.9,10.173
	v1.779v0.49v1.021v1.781v0.531v0.583v0.305l-1.979,1.859l0,0l-1.086,1.02c0.567,1.05,0.381,2.39-0.533,3.242
	c-1.085,1.014-2.787,0.955-3.801-0.131c-1.013-1.085-0.955-2.787,0.131-3.801c0.913-0.853,2.263-0.946,3.271-0.308l2.631-2.472
	V30.81v-1.608h-5.359c-0.302,1.155-1.352,2.007-2.602,2.007c-1.485,0-2.689-1.204-2.689-2.689c0-1.485,1.204-2.689,2.689-2.689
	c1.249,0,2.3,0.852,2.602,2.007h5.359V26.34v-0.039v-0.158c0.383,0.449,0.791,0.865,1.22,1.248
	c-2.971-2.649-4.904-6.958-4.904-11.824C29.836,7.513,34.27,0.125,40.799,0.125L40.799,0.125z M56.89,28.519
	c0,0.852-0.691,1.542-1.543,1.542c-0.852,0-1.542-0.691-1.542-1.542c0-0.852,0.69-1.543,1.542-1.543S56.89,27.667,56.89,28.519
	L56.89,28.519z M24.017,28.519c0,0.852,0.691,1.542,1.542,1.542c0.852,0,1.543-0.691,1.543-1.542c0-0.852-0.691-1.543-1.543-1.543
	C24.708,26.976,24.017,27.667,24.017,28.519L24.017,28.519z M52.582,37.438c-0.581,0.623-1.558,0.656-2.18,0.075
	c-0.623-0.581-0.656-1.557-0.075-2.18c0.582-0.623,1.557-0.656,2.18-0.075C53.13,35.839,53.163,36.815,52.582,37.438L52.582,37.438z
	 M28.326,37.438c0.581,0.623,1.557,0.656,2.18,0.075c0.623-0.581,0.656-1.557,0.075-2.18s-1.557-0.656-2.18-0.075
	C27.778,35.839,27.744,36.815,28.326,37.438L28.326,37.438z M35.346,45.136c-0.852,0-1.543-0.691-1.543-1.542
	c0-0.852,0.69-1.543,1.543-1.543c0.852,0,1.542,0.691,1.542,1.543C36.889,44.446,36.198,45.136,35.346,45.136L35.346,45.136z
	 M35.346,14.48c-0.852,0-1.543,0.691-1.543,1.543s0.69,1.543,1.543,1.543c0.852,0,1.542-0.691,1.542-1.543
	C36.889,15.171,36.198,14.48,35.346,14.48L35.346,14.48z"/>
<g>
	<path stroke="#000000" stroke-width="0.25" stroke-miterlimit="10" d="M1.825,53.325l4.386-3.799H8.48l-5.094,4.31l5.123,5.211
		H6.233l-4.057-4.236l-0.35,0.296v3.94h-1.7v-9.521h1.7L1.825,53.325L1.825,53.325z"/>
	<path stroke="#000000" stroke-width="0.25" stroke-miterlimit="10" d="M18.328,54.99l3.488,4.058h-2.08l-3.218-3.897h-0.306v3.897
		h-1.7v-9.521h1.992c1.489,0,2.563,0.236,3.225,0.709c0.73,0.526,1.095,1.221,1.095,2.084c0,0.674-0.228,1.254-0.686,1.739
		S19.077,54.855,18.328,54.99z M16.212,53.899h0.54c1.611,0,2.415-0.52,2.415-1.56c0-0.974-0.783-1.461-2.35-1.461h-0.606v3.021
		H16.212z"/>
	<path stroke="#000000" stroke-width="0.25" stroke-miterlimit="10" d="M35.794,59.048l-3.547-6.07l-3.714,6.07h-1.832l5.575-9.289
		l5.378,9.289L35.794,59.048L35.794,59.048z"/>
	<path stroke="#000000" stroke-width="0.25" stroke-miterlimit="10" d="M45.246,53.325l4.385-3.799h2.271l-5.094,4.31l5.123,5.211
		h-2.277l-4.057-4.236l-0.35,0.296v3.94h-1.701v-9.521h1.701v3.799H45.246z"/>
	<path stroke="#000000" stroke-width="0.25" stroke-miterlimit="10" d="M64.148,50.877h-4.516v2.288h4.385v1.35h-4.385v3.182h4.516
		v1.35h-6.217v-9.521h6.217V50.877z"/>
	<path stroke="#000000" stroke-width="0.25" stroke-miterlimit="10" d="M70.866,59.048v-9.339l8.217,5.854v-6.036h1.699v9.52
		l-8.217-5.835v5.835L70.866,59.048L70.866,59.048z"/>
</g>
</svg>
